<svg xmlns="http://www.w3.org/2000/svg" xmlns:xlink="http://www.w3.org/1999/xlink" width="45" height="45" viewBox="0 0 45 45"><defs><style>.a{fill:#fff;}.b{fill:#307ef0;}.c{clip-path:url(#c);}.d{filter:url(#a);}</style><filter id="a" x="0" y="0" width="45" height="45" filterUnits="userSpaceOnUse"><feOffset dx="1" dy="1" input="SourceAlpha"/><feGaussianBlur stdDeviation="2.5" result="b"/><feFlood flood-opacity="0.161"/><feComposite operator="in" in2="b"/><feComposite in="SourceGraphic"/></filter><clipPath id="c"><rect class="a" width="11.895" height="20.869"/></clipPath></defs><g transform="translate(-586.5 -502.5)"><g class="d" transform="matrix(1, 0, 0, 1, 586.5, 502.5)"><path class="b" d="M15,0A15,15,0,1,1,0,15,15,15,0,0,1,15,0Z" transform="translate(6.5 6.5)"/></g><g transform="translate(602 513.536)"><g class="c"><path class="a" d="M87.124,866.951a.631.631,0,0,1-.631-.631v-.631h-2.8a.631.631,0,1,0,0,1.262h6.87a.631.631,0,1,0,0-1.262h-2.8v.631a.631.631,0,0,1-.631.631" transform="translate(-81.177 -846.082)"/><path class="a" d="M235.384,675.28h-.069q-.3,0-.6-.03v4.944a.631.631,0,0,0,1.262,0V675.25q-.3.029-.6.03" transform="translate(-229.403 -659.956)"/><path class="a" d="M5.982,394.184q.3,0,.6-.03a5.914,5.914,0,0,0,5.316-5.883.631.631,0,1,0-1.262,0,4.651,4.651,0,0,1-4.651,4.651H5.913a4.651,4.651,0,0,1-4.651-4.651.631.631,0,1,0-1.262,0,5.914,5.914,0,0,0,5.316,5.883q.3.029.6.03Z" transform="translate(0 -378.86)"/><path class="a" d="M114.317,12.811h.069a3.4,3.4,0,0,0,3.4-3.4v-.2h-1.837V8.4h1.837V7.588h-1.837V6.783h1.837V5.971h-1.837V5.166h1.837V4.355h-1.837V3.549h1.837V3.4a3.4,3.4,0,0,0-3.4-3.4h-.069a3.4,3.4,0,0,0-3.4,3.4v.149h1.837v.806h-1.837v.811h1.837v.806h-1.837v.811h1.837v.806h-1.837V8.4h1.837v.806h-1.837v.2a3.4,3.4,0,0,0,3.4,3.4" transform="translate(-108.404 0.001)"/></g></g></g></svg>